<svg xmlns="http://www.w3.org/2000/svg" xmlns:xlink="http://www.w3.org/1999/xlink" viewBox="0,0,255.99536,255.99536" width="480px" height="480px" fill-rule="nonzero"><g fill="#64ffda" fill-rule="nonzero" stroke="none" stroke-width="1" stroke-linecap="butt" stroke-linejoin="miter" stroke-miterlimit="10" stroke-dasharray="" stroke-dashoffset="0" font-family="none" font-weight="none" font-size="none" text-anchor="none" style="mix-blend-mode: normal"><g transform="scale(5.33333,5.33333)"><path d="M48,16v-2h-7.531l-0.66,2zM33,31v-2h-4h-2v2zM39.766,28l0.744,-2h-6l0.756,2zM29,26h4v2h-4zM29,23h4v2h-4zM42,29v2h6v-2h-2zM36.181,19l-0.66,-2h-8.521v2h2zM37.17,22l-0.66,-2h-7.51v2zM33.378,23l0.755,2h6.75l0.745,-2zM42,23h4v2h-4zM27,32h6v2h-6zM35.191,16l-0.66,-2h-7.531v2zM36.776,32l0.755,2l0.745,-2zM42,32h6v2h-6zM39.479,17l-0.66,2h7.181h2v-2zM39.393,29h-3.75l0.755,2h2.25zM42,26h4v2h-4zM38.49,20l-0.66,2h8.17v-2zM0,14h8v2h-8zM0,17h8v2h-8zM2,20h4v2h-4zM2,23h4v2h-4zM2,26h4v2h-4zM0,29h8v2h-8zM0,32h8v2h-8zM10,17h8v2h-8zM24.977,16c-0.913,-1.208 -2.347,-2 -3.977,-2h-11v2h7.023z"></path><path d="M25.578,17h-9.131c-0.276,0.613 -0.447,1.283 -0.447,2h10c0,-0.712 -0.154,-1.387 -0.422,-2zM23.975,23h-11.975v2h11.973c-0.833,-0.62 -1.854,-1 -2.973,-1c1.119,0 2.142,-0.379 2.975,-1zM17.023,32h-7.023v2h11c1.63,0 3.065,-0.792 3.977,-2zM18,29h-2h-6v2h6.447h1.553h7.578c0.268,-0.613 0.422,-1.288 0.422,-2zM21,20c0,0 0,0.083 0,1c0,0.917 -1,1 -1,1h4.979c0.441,-0.584 0.77,-1.257 0.921,-2zM12,20h5v2h-5z"></path><g><path d="M21,28h4.885c-0.156,-0.738 -0.467,-1.418 -0.907,-2h-4.978c0,0 1,0.167 1,1c0,0.833 0,1 0,1zM12,26h5v2h-5z"></path></g></g></g></svg>